<svg xmlns="http://www.w3.org/2000/svg" viewBox="0 0 630.23 65.58"><defs><style>.cls-1{fill:#f9f9f9;}</style></defs><g id="Layer_2" data-name="Layer 2"><g id="Layer_1-2" data-name="Layer 1"><path class="cls-1" d="M41,15.78a32.81,32.81,0,0,1-4.44-.36Q34,15.06,31,14.52t-6.09-1.2q-3.15-.66-6.18-1.2T13,11.22A38.48,38.48,0,0,0,8,10.86a8.72,8.72,0,0,0-2,.21,7.4,7.4,0,0,0-1.8.69A14.23,14.23,0,0,0,2.34,13q-1,.78-2.34,2,3.72-3.9,6.39-6.36A51.06,51.06,0,0,1,11,4.8a14.4,14.4,0,0,1,3.33-1.89A7.86,7.86,0,0,1,17,2.4a34.11,34.11,0,0,1,4.5.36q2.64.36,5.64.9T33.3,4.83q3.18.63,6.15,1.17T45,6.9a31.87,31.87,0,0,0,4.35.36,13.23,13.23,0,0,0,2.55-.21,8.22,8.22,0,0,0,1.83-.57,5.4,5.4,0,0,0,1.35-.87q.57-.51,1.23-1.17Q53.16,8,51.09,10.2a30.43,30.43,0,0,1-3.69,3.45,10.22,10.22,0,0,1-3.06,1.68A11.29,11.29,0,0,1,41,15.78ZM52.32,42.06A34.72,34.72,0,0,1,49.56,50,31.22,31.22,0,0,1,44.4,57.6a26.89,26.89,0,0,1-7.5,5.73,20.86,20.86,0,0,1-9.78,2.25A27.58,27.58,0,0,1,17,63.87a20.63,20.63,0,0,1-7.35-4.74,19.64,19.64,0,0,1-4.47-7.2,26.86,26.86,0,0,1-1.5-9.15A32,32,0,0,1,5,33.51,33.12,33.12,0,0,1,8.4,25.8a41.26,41.26,0,0,1,5.07-6.66Q16.38,16,19.74,13a26,26,0,0,0-3.21,4,20,20,0,0,0-2.19,4.71,33,33,0,0,0-1.26,5.79,55.43,55.43,0,0,0-.42,7.2q0,10.86,5.46,16.5T34.8,56.82a16.83,16.83,0,0,0,6.42-1.2,17.83,17.83,0,0,0,5.19-3.21,18.14,18.14,0,0,0,3.75-4.68A20.51,20.51,0,0,0,52.32,42.06Zm-20,1.26L21.84,52.8l-.12-27.48a32.37,32.37,0,0,1,4-4.26L32,15.24Z"/><path class="cls-1" d="M66.12,59.28a12.19,12.19,0,0,0,.12,1.92,4.12,4.12,0,0,0,.33,1.14,1.33,1.33,0,0,0,.54.6,3.44,3.44,0,0,0,.81.3H54.18a1.7,1.7,0,0,0,.57-.72,8.15,8.15,0,0,0,.33-2.64q.12-5.4.18-11.34t.09-11.67q0-5.73,0-10.77V17.52q0-3.78-.06-6.15a29.51,29.51,0,0,0-.24-3.51q2.64-.12,5.28-.42t5.4-.72l.12,19.56q1.68-1.74,4.05-3.75T74.46,19a18.42,18.42,0,0,1,2.67-1.59,5.34,5.34,0,0,1,2.25-.51,8.45,8.45,0,0,1,3.72.87,11.13,11.13,0,0,1,3.21,2.34,11.67,11.67,0,0,1,2.28,3.48,10.54,10.54,0,0,1,.87,4.23q0,2.16-.09,5.52t-.18,7q-.09,3.63-.18,7t-.09,5.52a24,24,0,0,0,.48,5.37,9.25,9.25,0,0,0,1.23,3.09,4.09,4.09,0,0,0,1.62,1.47,6.46,6.46,0,0,0,1.65.51H80.16A3.12,3.12,0,0,1,79.23,62a8.92,8.92,0,0,1-.51-2.07,25.54,25.54,0,0,1-.21-3.12q0-1.86,0-4.5,0-.6,0-2t.09-3.09q.06-1.71.15-3.69t.15-3.81q.06-1.83.09-3.36t0-2.49q0-.9-.09-1.89T78.66,30a10,10,0,0,0-.48-1.74,5.15,5.15,0,0,0-.72-1.32A10.1,10.1,0,0,0,74,24.18a8.41,8.41,0,0,0-3.51-.84,3.71,3.71,0,0,0-2,.93q-1.23.93-2.61,2.07Q65.94,36,66,44.1T66.12,59.28Z"/><path class="cls-1" d="M95.4,43q0-2.58.15-4.29a14.37,14.37,0,0,1,.54-3,9.15,9.15,0,0,1,1-2.28q.66-1,1.68-2.34.72-.9,1.38-1.68t1.41-1.59q.75-.81,1.71-1.8t2.28-2.31q1.32-1.32,2.73-2.61a33.18,33.18,0,0,1,2.76-2.28,20.4,20.4,0,0,1,2.55-1.62,4.59,4.59,0,0,1,2-.63,11.26,11.26,0,0,1,3.21.51,20.4,20.4,0,0,1,3.42,1.38,25.22,25.22,0,0,1,3.33,2,28.31,28.31,0,0,1,3,2.49L105.78,43a25.37,25.37,0,0,0,.87,4.56,9.87,9.87,0,0,0,1.56,3.15,9.58,9.58,0,0,0,2.43,2.22,26.69,26.69,0,0,0,3.42,1.83,12.74,12.74,0,0,0,1.68.63,15.08,15.08,0,0,0,1.77.42q.87.15,1.62.24a10.73,10.73,0,0,0,1.23.09,8,8,0,0,0,2.37-.36,10.37,10.37,0,0,0,3-1.74,51.47,51.47,0,0,0,4.56-4.11q2.76-2.73,7.14-7.47L130,50.61Q127,54,124.8,56.25t-3.57,3.54a25.82,25.82,0,0,1-2.43,2,14.53,14.53,0,0,1-3.21,1.59,10.67,10.67,0,0,1-3.51.57,18.52,18.52,0,0,1-5.13-.75,17.77,17.77,0,0,1-4.53-2,12.37,12.37,0,0,1-3.24-2.73A13.34,13.34,0,0,1,97,54.75a22.69,22.69,0,0,1-1.23-5.07A50.19,50.19,0,0,1,95.4,43Zm10-9.12q0,2.76.06,5a38.48,38.48,0,0,0,.3,4L119.1,30.66a28.4,28.4,0,0,0-5.67-4.35,12.17,12.17,0,0,0-6.15-1.71,7.2,7.2,0,0,1-.75,0,1.5,1.5,0,0,0-.63.09,27.82,27.82,0,0,0-.39,3.9Q105.42,30.84,105.42,33.9Z"/><path class="cls-1" d="M208.68,42.06a33,33,0,0,1-8.31,15.54,28.32,28.32,0,0,1-7.8,5.73,22,22,0,0,1-10,2.25,28.71,28.71,0,0,1-11.07-2,22.23,22.23,0,0,1-12.78-13.14A26.82,26.82,0,0,1,157,41a43,43,0,0,1,.66-7.86,28.85,28.85,0,0,1,2.28-7,42.38,42.38,0,0,1,4.41-7.2q2.79-3.75,7-8.61A24.73,24.73,0,0,0,168,16.11a27.28,27.28,0,0,0-1.62,5.43,30.88,30.88,0,0,0-.51,5.16q0,2.52,0,4.86,0,12.6,6.18,18.93t18.06,6.33a20.35,20.35,0,0,0,7-1.14,17.84,17.84,0,0,0,5.46-3.12,17.16,17.16,0,0,0,3.87-4.68A21.58,21.58,0,0,0,208.68,42.06ZM172.14,9.6q2.1-2,4.5-4T181,1.86q3.12,1,6.6,2t6.72,1.83q3.24.81,6,1.29a27.05,27.05,0,0,0,4.38.48,8,8,0,0,0,3.69-.81A17.72,17.72,0,0,0,212,4q-3.54,3.6-6.18,5.85a42.36,42.36,0,0,1-4.68,3.54,14.69,14.69,0,0,1-3.72,1.77,12.18,12.18,0,0,1-3.36.48,23.91,23.91,0,0,1-4.2-.45q-2.46-.45-5.37-1.23T178.44,12Q175.26,10.92,172.14,9.6Zm11.1,32.34L173.1,51.18,173,23.58q.48-.54,1.26-1.29t2.4-2.19l6.3-5.82Zm8.7-14.52q2.58,1.14,4.56,1.83A35.69,35.69,0,0,0,200,30.3a22.22,22.22,0,0,0,2.64.48,18.86,18.86,0,0,0,2,.12,3.73,3.73,0,0,0,2-.66,21.63,21.63,0,0,0,2.88-2.46q-3.3,3.36-5.64,5.55t-4,3.48a14,14,0,0,1-2.88,1.8,5.71,5.71,0,0,1-2.22.51,17.7,17.7,0,0,1-2.25-.15,16.85,16.85,0,0,1-2.52-.54,30.08,30.08,0,0,1-3-1q-1.62-.66-3.66-1.68l4.26-4.23Q189.84,29.34,191.94,27.42Z"/><path class="cls-1" d="M235.26,63.24a3.12,3.12,0,0,1-.93-1.29,8.92,8.92,0,0,1-.51-2.07,25.54,25.54,0,0,1-.21-3.12q0-1.86,0-4.5,0-.6,0-2t.09-3.09c0-1.14.09-2.37.15-3.69s.11-2.59.15-3.81.06-2.34.09-3.36,0-1.85,0-2.49,0-1.23-.09-1.89-.15-1.31-.27-1.95a10,10,0,0,0-.48-1.74,5.15,5.15,0,0,0-.72-1.32,10.32,10.32,0,0,0-3.39-2.76,8,8,0,0,0-3.45-.84,3.64,3.64,0,0,0-2,.9q-1.2.9-2.52,2,0,3.42,0,7.35t.06,8.16q0,4.23.09,8.67t.18,8.82a12.19,12.19,0,0,0,.12,1.92,4.12,4.12,0,0,0,.33,1.14,1.33,1.33,0,0,0,.54.6,3.44,3.44,0,0,0,.81.3h-14.1a1.7,1.7,0,0,0,.57-.72,8.15,8.15,0,0,0,.33-2.64q.12-5.46.18-10.74t.09-9.72q0-4.44,0-7.62V27.42q0-2.88-.18-4.68a10.33,10.33,0,0,0-.63-2.88,2.86,2.86,0,0,0-1.23-1.5,5.28,5.28,0,0,0-2-.54c1.23,0,2.59,0,4-.09s2.88-.14,4.26-.24,2.64-.21,3.78-.33l2.67-.3v9.3q.84-.84,1.86-1.8t2.13-1.92q1.11-1,2.25-1.86T229.68,19a17.9,17.9,0,0,1,2.67-1.59,5.34,5.34,0,0,1,2.25-.51,8.64,8.64,0,0,1,3.75.87,11.4,11.4,0,0,1,3.27,2.34A11.82,11.82,0,0,1,244,23.55a10.24,10.24,0,0,1,.9,4.23q0,2.16-.09,5.52t-.18,7q-.09,3.63-.18,7t-.09,5.52a24,24,0,0,0,.48,5.37A9,9,0,0,0,246,61.26a4.09,4.09,0,0,0,1.62,1.47,6.46,6.46,0,0,0,1.65.51Z"/><path class="cls-1" d="M284.94,6.36a12.91,12.91,0,0,0-.18,2.34c-.05,1.24-.07,2.79-.09,4.65s0,4,0,6.33,0,4.8,0,7.32,0,5.06,0,7.62,0,5,0,7.29V52.8a24.1,24.1,0,0,0,.47,5.37,9.24,9.24,0,0,0,1.24,3.09A4.09,4.09,0,0,0,288,62.73a6.4,6.4,0,0,0,1.64.51H275.94a4,4,0,0,1-1.21-2.13,22.09,22.09,0,0,1-.47-4.17c-.77.76-1.74,1.67-2.95,2.73s-2.46,2.09-3.78,3.09a10.72,10.72,0,0,1-2.84,1.62,9.68,9.68,0,0,1-3.21.48,8.19,8.19,0,0,1-4.12-1.11,10.69,10.69,0,0,1-3.42-3.21,16.36,16.36,0,0,1-2.3-5.16,25.93,25.93,0,0,1-.84-7,38.66,38.66,0,0,1,.66-7.71,22.26,22.26,0,0,1,2-5.94,20.82,20.82,0,0,1,3.56-5,55.55,55.55,0,0,1,5.25-4.74q1.44-1.14,3-2.25c1-.74,2.09-1.44,3.16-2.1s2.07-1.26,3-1.8l2.67-1.47v-.54c0-1.92-.05-3.48-.17-4.68a10.33,10.33,0,0,0-.63-2.88,2.88,2.88,0,0,0-1.24-1.5,5.18,5.18,0,0,0-2-.54q1.85,0,4.05-.09c1.46-.06,2.87-.14,4.25-.24s2.65-.21,3.79-.33ZM274.26,24.72h-4.62c-1.53,0-2.9.05-4.12.15a16.51,16.51,0,0,0-2.49.33c-.16.56-.35,1.35-.59,2.37s-.48,2.24-.69,3.66-.42,3-.57,4.8-.24,3.69-.24,5.73a30.45,30.45,0,0,0,.92,8.22,14.6,14.6,0,0,0,2.41,5.1,7.75,7.75,0,0,0,3.38,2.58,11.08,11.08,0,0,0,3.91.72,2.41,2.41,0,0,0,1.17-.42,13.6,13.6,0,0,0,1.53-1.14V24.72Z"/><path class="cls-1" d="M318.71,31.44a44.7,44.7,0,0,1,3.06-3.51q1.86-2,3.48-3.57t3.12-3A19.38,19.38,0,0,1,331.52,19a15,15,0,0,1,3.69-1.56,17.69,17.69,0,0,1,4.74-.57,15.88,15.88,0,0,1,7.32,1.44A13.2,13.2,0,0,1,352,22.44a15.52,15.52,0,0,1,2.67,5.73,28.27,28.27,0,0,1,.75,6.57q0,2.34-.15,4.29a26.85,26.85,0,0,1-.54,3.72,16.49,16.49,0,0,1-1.14,3.39,18.58,18.58,0,0,1-2,3.24,10.55,10.55,0,0,1-1.23,1.38l-1.56,1.5q-.81.78-1.65,1.5L345.65,55a20.31,20.31,0,0,0-2.55,2.52,28.78,28.78,0,0,1-2,2.16,13.23,13.23,0,0,1-4.59,3.24,15.55,15.55,0,0,1-5.91,1,15.93,15.93,0,0,1-7.5-1.56,13.84,13.84,0,0,1-4.86-4.26,17.41,17.41,0,0,1-2.79-5.58,23,23,0,0,1-.87-6.42q0-2.34.18-4.32a21.19,21.19,0,0,1,.66-3.72,21,21,0,0,1,1.26-3.39A19.53,19.53,0,0,1,318.71,31.44Zm24.84,24q.66-3,1.05-6.33a56.45,56.45,0,0,0,.39-6.57q0-2.58-.12-4.65a37.43,37.43,0,0,0-.39-3.75,18.89,18.89,0,0,0-.75-3.09,13.53,13.53,0,0,0-1.2-2.61,8.21,8.21,0,0,0-3.84-3.36,16.51,16.51,0,0,0-6.36-1,25.6,25.6,0,0,0-2.85.18,16,16,0,0,0-3.09.66q-.66,3-1.11,6a41.43,41.43,0,0,0-.45,6.21,35.65,35.65,0,0,0,.81,8.4,20.37,20.37,0,0,0,2.31,5.7,10.08,10.08,0,0,0,9.66,5.1,25.6,25.6,0,0,0,2.85-.18A16,16,0,0,0,343.55,55.44Z"/><path class="cls-1" d="M370.67,64.92a1,1,0,0,1-.42-.06,14.74,14.74,0,0,1-2.55-.9,10,10,0,0,1-1.83-1.14,5.45,5.45,0,0,1-1.74-2.28,8.43,8.43,0,0,1-.48-3V52.68q0-2.76,0-6.54t0-8.73V26q-1.56,0-3.09,0t-3.45,0q-1,0-.36-.66l15.9-15.12a8.09,8.09,0,0,1,.72-.63,1.24,1.24,0,0,1,.66-.33q.42,0,.42.54v8q4.38-.12,8.7-.15l8.46,0-9.54,8.76q-1.92-.12-3.75-.18l-3.87-.12V44.37q0,3.87,0,6.51t.09,3.3a2.35,2.35,0,0,0,.69,1.11,6.81,6.81,0,0,0,1.32,1,7.23,7.23,0,0,0,1.65.72,6,6,0,0,0,1.74.27,3.55,3.55,0,0,0,1.2-.24,9.63,9.63,0,0,0,1.32-.6q-.48.36-1.8,1.44t-2.94,2.34q-1.62,1.26-3.18,2.43t-2.4,1.71A2.93,2.93,0,0,1,370.67,64.92ZM385,11a17.87,17.87,0,0,1-3.93-.6,29.13,29.13,0,0,1-6-2.34L384.23,0q4.26,1.56,6.93,2.28a17.64,17.64,0,0,0,4.41.72,6.79,6.79,0,0,0,1.17-.09,3.85,3.85,0,0,0,1.05-.36A7.51,7.51,0,0,0,399,1.8q.63-.48,1.53-1.26-4,3.72-6.45,5.85a37.5,37.5,0,0,1-4.11,3.15,9,9,0,0,1-2.73,1.26A10.62,10.62,0,0,1,385,11Z"/><path class="cls-1" d="M418.43,64.14a13,13,0,0,1-1.74-.84q-1.08-.6-2.46-1.44t-2.94-1.92a33.5,33.5,0,0,1-3.06-2.4L417,49.26q3.42,2.7,5.79,4.26a29,29,0,0,0,3.57,2.1Zm12.48-.9A3.12,3.12,0,0,1,430,62a8.92,8.92,0,0,1-.51-2.07,25.54,25.54,0,0,1-.21-3.12q0-1.86,0-4.5,0-1,.06-3.39t.15-5.49q.09-3.06.15-6.36t.06-5.94a6.93,6.93,0,0,0-1.17-4,8.27,8.27,0,0,0-4.41-2.82,19.29,19.29,0,0,0-3.06-.84,15,15,0,0,0-2.34-.18,5.16,5.16,0,0,0-3.12,1.44q-1.74,1.44-3.9,3.12,1.38-1.2,2.79-2.49l2.73-2.49q1.32-1.2,2.52-2.22t2.22-1.74a14.48,14.48,0,0,1,3.21-1.77,7.39,7.39,0,0,1,2.43-.45,12.25,12.25,0,0,1,3.84.63,19.35,19.35,0,0,1,3.84,1.77,14,14,0,0,1,3.93,3.09,5.79,5.79,0,0,1,1.23,3.75q0,2.94-.06,6.69t-.15,7.53q-.09,3.78-.15,7.14T440,52.8a24,24,0,0,0,.48,5.37,9.25,9.25,0,0,0,1.23,3.09,4.09,4.09,0,0,0,1.62,1.47,6.46,6.46,0,0,0,1.65.51Z"/><path class="cls-1" d="M472.91,63.24A3.12,3.12,0,0,1,472,62a8.92,8.92,0,0,1-.51-2.07,25.54,25.54,0,0,1-.21-3.12q0-1.86,0-4.5,0-.6,0-2t.09-3.09q.06-1.71.15-3.69t.15-3.81q.06-1.83.09-3.36t0-2.49q0-.9-.09-1.89T471.41,30a10,10,0,0,0-.48-1.74,5.15,5.15,0,0,0-.72-1.32,10.32,10.32,0,0,0-3.39-2.76,8,8,0,0,0-3.45-.84,3.64,3.64,0,0,0-2,.9q-1.2.9-2.52,2,0,3.42,0,7.35t.06,8.16q0,4.23.09,8.67t.18,8.82a12.19,12.19,0,0,0,.12,1.92,4.12,4.12,0,0,0,.33,1.14,1.33,1.33,0,0,0,.54.6,3.44,3.44,0,0,0,.81.3h-14.1a1.7,1.7,0,0,0,.57-.72,8.15,8.15,0,0,0,.33-2.64q.12-5.46.18-10.74t.09-9.72q0-4.44,0-7.62V27.42q0-2.88-.18-4.68a10.33,10.33,0,0,0-.63-2.88,2.86,2.86,0,0,0-1.23-1.5,5.28,5.28,0,0,0-2-.54q1.86,0,4.05-.09t4.26-.24q2.07-.15,3.78-.33l2.67-.3v9.3q.84-.84,1.86-1.8t2.13-1.92q1.11-1,2.25-1.86T467.33,19A18.42,18.42,0,0,1,470,17.37a5.34,5.34,0,0,1,2.25-.51,8.64,8.64,0,0,1,3.75.87,11.4,11.4,0,0,1,3.27,2.34,11.82,11.82,0,0,1,2.34,3.48,10.24,10.24,0,0,1,.9,4.23q0,2.16-.09,5.52t-.18,7q-.09,3.63-.18,7T482,52.8a24,24,0,0,0,.48,5.37,9.25,9.25,0,0,0,1.23,3.09,4.09,4.09,0,0,0,1.62,1.47,6.46,6.46,0,0,0,1.65.51Z"/><path class="cls-1" d="M566.39,42.06a33,33,0,0,1-8.31,15.54,28.32,28.32,0,0,1-7.8,5.73,22,22,0,0,1-10,2.25,28.71,28.71,0,0,1-11.07-2,22.23,22.23,0,0,1-12.78-13.14A26.82,26.82,0,0,1,514.73,41a43,43,0,0,1,.66-7.86,28.85,28.85,0,0,1,2.28-7,42.38,42.38,0,0,1,4.41-7.2q2.79-3.75,7-8.61a24.73,24.73,0,0,0-3.42,5.73,27.28,27.28,0,0,0-1.62,5.43,30.88,30.88,0,0,0-.51,5.16q0,2.52,0,4.86,0,12.6,6.18,18.93t18.06,6.33a20.35,20.35,0,0,0,7-1.14,17.84,17.84,0,0,0,5.46-3.12,17.16,17.16,0,0,0,3.87-4.68A21.58,21.58,0,0,0,566.39,42.06ZM529.85,9.6q2.1-2,4.5-4t4.32-3.72q3.12,1,6.6,2T552,5.73q3.24.81,6,1.29a27.05,27.05,0,0,0,4.38.48,8,8,0,0,0,3.69-.81A17.72,17.72,0,0,0,569.75,4q-3.54,3.6-6.18,5.85a42.36,42.36,0,0,1-4.68,3.54,14.69,14.69,0,0,1-3.72,1.77,12.18,12.18,0,0,1-3.36.48,23.91,23.91,0,0,1-4.2-.45q-2.46-.45-5.37-1.23T536.15,12Q533,10.92,529.85,9.6ZM541,41.94l-10.14,9.24-.12-27.6q.48-.54,1.26-1.29t2.4-2.19l6.3-5.82Zm8.7-14.52q2.58,1.14,4.56,1.83a35.69,35.69,0,0,0,3.51,1.05,22.22,22.22,0,0,0,2.64.48,18.86,18.86,0,0,0,2,.12,3.73,3.73,0,0,0,2-.66,21.63,21.63,0,0,0,2.88-2.46q-3.3,3.36-5.64,5.55t-4,3.48a14,14,0,0,1-2.88,1.8,5.71,5.71,0,0,1-2.22.51,17.7,17.7,0,0,1-2.25-.15,16.85,16.85,0,0,1-2.52-.54,30.08,30.08,0,0,1-3-1q-1.62-.66-3.66-1.68l4.26-4.23Q547.55,29.34,549.65,27.42Z"/><path class="cls-1" d="M582.23,54.12a3.13,3.13,0,0,0,.75,1.05,6.46,6.46,0,0,0,1.35,1,10.43,10.43,0,0,0,1.59.75,4.28,4.28,0,0,0,1.47.3,3.55,3.55,0,0,0,1.2-.24,9.63,9.63,0,0,0,1.32-.6l-1.74,1.35-2.79,2.16-3,2.28q-1.47,1.11-2.31,1.65a2.93,2.93,0,0,1-1.56.54,4.1,4.1,0,0,1-.9-.15,8.33,8.33,0,0,1-1.29-.45q-.69-.3-1.38-.66a6.06,6.06,0,0,1-1.23-.84A6.33,6.33,0,0,1,571.25,57V23.46a16.28,16.28,0,0,0-.18-2.67,4,4,0,0,0-.63-1.68,2.45,2.45,0,0,0-1.23-.9,8.87,8.87,0,0,0-2-.39l4,0q2.13,0,4.11-.18t3.72-.33q1.74-.18,2.94-.42v7.89q0,4,0,8t0,7.5q0,3.57,0,6.45t.06,4.83Q582.17,53.46,582.23,54.12ZM604.43,23a4.25,4.25,0,0,0-1.68.39,8,8,0,0,0-2,1.41q-2,1.8-3.33,3.06t-2.34,2a9.77,9.77,0,0,1-1.74,1.14,3.38,3.38,0,0,1-1.47.36,3.78,3.78,0,0,1-1.53-.36,9.42,9.42,0,0,1-1.83-1.14,28.72,28.72,0,0,1-2.31-2q-1.29-1.23-2.91-3l7.86-8.1q.9,1.08,2.13,2.31a33.26,33.26,0,0,0,2.52,2.28,16,16,0,0,0,2.52,1.71,4.83,4.83,0,0,0,2.25.66,3.28,3.28,0,0,0,1.65-.51A10.83,10.83,0,0,0,603.92,22q.87-.78,1.77-1.62t1.74-1.5Z"/><path class="cls-1" d="M602.27,49.26q3.42,2.7,5.79,4.26a29,29,0,0,0,3.57,2.1l-7.92,8.52A13,13,0,0,1,602,63.3q-1.08-.6-2.46-1.44t-2.94-1.92a33.5,33.5,0,0,1-3.06-2.4Zm23,3.54a24,24,0,0,0,.48,5.37A9.25,9.25,0,0,0,627,61.26a4.09,4.09,0,0,0,1.62,1.47,6.46,6.46,0,0,0,1.65.51h-14a3.12,3.12,0,0,1-.93-1.29,8.92,8.92,0,0,1-.51-2.07,25.54,25.54,0,0,1-.21-3.12q0-1.86,0-4.5,0-1,.09-3.39t.18-5.49q.09-3.06.18-6.36t.09-5.94a6.93,6.93,0,0,0-1.17-4,8.27,8.27,0,0,0-4.41-2.82q-1.92-.66-3-1a8.16,8.16,0,0,0-2.13-.3,4.25,4.25,0,0,0-1.68.39,8,8,0,0,0-2,1.41l-.18-1a3.28,3.28,0,0,0,1.65-.51A10.83,10.83,0,0,0,603.8,22q.87-.78,1.77-1.62t1.74-1.5a10.71,10.71,0,0,1,3.15-1.8,8.43,8.43,0,0,1,2.49-.42,12.25,12.25,0,0,1,3.84.63,19.35,19.35,0,0,1,3.84,1.77,14,14,0,0,1,3.93,3.09,5.79,5.79,0,0,1,1.23,3.75q0,2.94-.09,6.69t-.18,7.53q-.09,3.78-.18,7.14T625.25,52.8Z"/></g></g></svg>