<?xml version="1.0" encoding="UTF-8" standalone="no"?>
<!-- Generator: Adobe Illustrator 26.0.2, SVG Export Plug-In . SVG Version: 6.00 Build 0)  -->

<svg
   xmlns:dc="http://purl.org/dc/elements/1.1/"
   xmlns:cc="http://creativecommons.org/ns#"
   xmlns:rdf="http://www.w3.org/1999/02/22-rdf-syntax-ns#"
   xmlns:svg="http://www.w3.org/2000/svg"
   xmlns="http://www.w3.org/2000/svg"
   xmlns:sodipodi="http://sodipodi.sourceforge.net/DTD/sodipodi-0.dtd"
   xmlns:inkscape="http://www.inkscape.org/namespaces/inkscape"
   version="1.1"
   id="Layer_1"
   x="0px"
   y="0px"
   viewBox="0 0 1200 1200"
   style="enable-background:new 0 0 1200 1200;"
   xml:space="preserve"
   sodipodi:docname="reinaissance.svg"
   inkscape:version="0.92.5 (2060ec1f9f, 2020-04-08)"><metadata
   id="metadata17"><rdf:RDF><cc:Work
       rdf:about=""><dc:format>image/svg+xml</dc:format><dc:type
         rdf:resource="http://purl.org/dc/dcmitype/StillImage" /></cc:Work></rdf:RDF></metadata><defs
   id="defs15" /><sodipodi:namedview
   pagecolor="#ffffff"
   bordercolor="#666666"
   borderopacity="1"
   objecttolerance="10"
   gridtolerance="10"
   guidetolerance="10"
   inkscape:pageopacity="0"
   inkscape:pageshadow="2"
   inkscape:window-width="1848"
   inkscape:window-height="1016"
   id="namedview13"
   showgrid="false"
   inkscape:zoom="0.19666667"
   inkscape:cx="-338.13558"
   inkscape:cy="600.00001"
   inkscape:window-x="72"
   inkscape:window-y="27"
   inkscape:window-maximized="1"
   inkscape:current-layer="Layer_1" />
<style
   type="text/css"
   id="style2">
	.st0{fill:#231F20;}
	.st1{fill:#FAF9F9;}
</style>


<g
   id="g847"
   transform="translate(-718.86377,-1045.0824)"><rect
     style="fill:#231f20;fill-opacity:1;stroke-width:1"
     id="rect4"
     height="1200"
     width="1200"
     class="st0"
     x="718.86377"
     y="1045.0824" /><g
     transform="matrix(0.92409904,0,0,0.92409904,764.39968,1090.6137)"
     id="g10"><path
       style="fill:#fbf9f9;fill-opacity:1"
       inkscape:connector-curvature="0"
       id="path6-36"
       d="m 524.22,884.5 c -5.03,3.84 -9.46,6.47 -13.29,7.9 -3.84,1.44 -7.9,2.16 -12.21,2.16 -17.73,0 -36.28,-3.83 -55.68,-11.5 -19.4,-7.66 -38.8,-16.17 -58.19,-25.5 -19.39,-9.33 -38.68,-17.84 -57.83,-25.5 -19.16,-7.66 -37.61,-11.5 -55.32,-11.5 -10.06,0 -20.83,1.68 -32.33,5.03 -11.5,3.36 -25.27,10.18 -41.31,20.48 -16.05,10.31 -34.97,25.03 -56.76,44.18 -21.8,19.16 -47.54,44.31 -77.23,75.44 10.54,-9.59 19.88,-17.48 28.02,-23.71 8.14,-6.22 15.81,-11.25 22.99,-15.09 7.18,-3.83 14.37,-6.58 21.55,-8.26 7.18,-1.67 15.09,-2.51 23.71,-2.51 27.3,0 49.93,3.72 67.89,11.14 17.96,7.43 34.72,15.57 50.29,24.43 15.56,8.86 31.13,17 46.7,24.43 15.56,7.42 34.6,11.14 57.12,11.14 10.53,0 20.83,-1.8 30.89,-5.39 10.06,-3.59 21.79,-10.66 35.2,-21.19 13.4,-10.53 29.69,-25.26 48.85,-44.18 19.15,-18.92 43.34,-43.47 72.56,-73.64 -11.02,10.54 -20.12,19.16 -27.3,25.86 -7.18,6.69 -13.29,11.96 -18.32,15.78 z"
       class="st1" /><path
       style="fill:#fbf9f9;fill-opacity:1"
       inkscape:connector-curvature="0"
       id="path8-7"
       d="m 1135.94,853.61 -122.85,-99.15 -122.14,109.93 0.75,0.64 -4.58,4.17 c -2.13,2.83 -4.43,5.31 -6.91,7.41 -2.01,1.7 -4.13,3.25 -6.35,4.67 l -0.07,0.07 v -0.02 c -11.54,7.39 -25.92,11.09 -43.15,11.09 -17.73,0 -33.41,-4.67 -47.06,-14.01 -13.65,-9.34 -25.99,-21.55 -37,-36.64 -11.02,-15.09 -21.19,-32.08 -30.53,-51.01 -9.34,-18.92 -18.68,-37.83 -28.02,-56.76 -9.34,-18.92 -19.29,-36.88 -29.82,-53.88 -10.54,-17 -22.27,-31.49 -35.2,-43.47 46.93,-27.3 83.34,-57.48 109.2,-90.52 25.86,-33.05 38.8,-66.1 38.8,-99.15 0,-29.21 -6.59,-57.83 -19.76,-85.85 -13.18,-28.02 -33.05,-53.04 -59.63,-75.08 -26.58,-22.02 -59.75,-39.75 -99.51,-53.17 -39.76,-13.4 -86.46,-20.12 -140.1,-20.12 -50.29,0 -95.91,7.79 -136.86,23.35 -40.95,15.57 -75.92,35.81 -104.89,60.71 -28.98,24.91 -51.26,52.93 -66.82,84.06 -15.57,31.14 -23.35,62.5 -23.35,94.12 0,58.44 13.76,104.66 41.31,138.66 27.54,34.01 69.57,52.21 126.09,54.6 l -1.44,150.16 125.73,-113.52 0.72,-339.11 -75.44,69.69 c -12.93,11.5 -23.24,21.44 -30.89,29.82 -7.67,8.39 -13.41,15.45 -17.24,21.19 l -1.44,181.05 c -27.3,-1.44 -50.77,-6.7 -70.41,-15.81 -19.65,-9.09 -35.92,-20.59 -48.85,-34.49 -12.93,-13.89 -22.4,-30.05 -28.38,-48.5 -5.99,-18.43 -8.98,-37.72 -8.98,-57.84 0,-25.86 5.5,-50.4 16.52,-73.64 11.01,-23.23 26.94,-43.58 47.78,-61.07 20.83,-17.48 46.34,-31.36 76.51,-41.67 30.17,-10.29 64.18,-15.45 102.02,-15.45 46.45,0 87.4,4.92 122.85,14.73 35.44,9.82 65.02,23.83 88.73,42.03 23.71,18.21 41.55,40.12 53.52,65.74 11.97,25.63 17.96,54.24 17.96,85.85 0,21.55 -2.64,41.92 -7.9,61.07 -5.28,19.16 -14.13,34.97 -26.58,47.42 -9.59,-8.14 -20.47,-13.98 -31.61,-19.76 -26.09,-13.52 -66.6,-8.04 -66.6,-8.04 l -104.39,92.46 38.8,-1.44 c 18.2,-0.47 34,3.12 47.42,10.78 13.4,7.67 25.5,18.21 36.28,31.61 10.78,13.42 20.48,28.74 29.1,45.98 8.62,17.24 17,34.84 25.15,52.81 8.14,17.96 16.52,35.56 25.15,52.81 8.62,17.24 18.32,32.69 29.1,46.34 10.78,13.65 23.1,24.66 37,33.05 13.89,8.38 29.93,12.57 48.14,12.57 21.07,0 41.55,-5.28 61.43,-15.81 19.87,-10.54 37.59,-23.94 53.17,-40.23 15.56,-16.28 28.25,-34.36 38.08,-54.24 1.49,-3.01 2.87,-6.01 4.15,-8.99 l 120.46,102.75 z"
       class="st1" /></g></g></svg>